<svg xmlns="http://www.w3.org/2000/svg" width="300" height="285" fill="none" aria-labelledby="descId" role="img" viewBox="0 0 300 285"><title id="titleId"/><desc id="descId"/><style>.header{font:600 18px &apos;Segoe UI&apos;,Ubuntu,Sans-Serif;fill:#2f80ed;animation:fadeInAnimation .8s ease-in-out forwards}@supports (-moz-appearance:auto){.header{font-size:15.5px}}.lang-name{font:400 11px &quot;Segoe UI&quot;,Ubuntu,Sans-Serif;fill:#434d58}.stagger{opacity:0;animation:fadeInAnimation .3s ease-in-out forwards}.lang-progress{animation:growWidthAnimation .6s ease-in-out forwards}</style><rect width="299" height="99%" x=".5" y=".5" fill="#fffefe" stroke="#e4e2e2" stroke-opacity="1" data-testid="card-bg" rx="4.5"/><g data-testid="card-title"><g><text x="0" y="0" class="header" data-testid="header" transform="translate(25, 35) translate(0, 0)">Most Used Languages</text></g></g><g data-testid="main-card-body" transform="translate(0, 55)"><svg x="25" data-testid="lang-items"><g><g class="stagger" style="animation-delay:450ms" transform="translate(0, 0)"><text x="2" y="15" class="lang-name" data-testid="lang-name">JavaScript</text><text x="215" y="34" class="lang-name">37.40%</text><svg width="205" x="0" y="25"><rect width="205" height="8" x="0" y="0" fill="#ddd" rx="5" ry="5"/><svg width="37.404%" data-testid="lang-progress"><rect height="8" x="0" y="0" fill="#f1e05a" class="lang-progress" rx="5" ry="5" style="animation-delay:750ms"/></svg></svg></g></g><g><g class="stagger" style="animation-delay:600ms" transform="translate(0, 40)"><text x="2" y="15" class="lang-name" data-testid="lang-name">Markdown</text><text x="215" y="34" class="lang-name">22.72%</text><svg width="205" x="0" y="25"><rect width="205" height="8" x="0" y="0" fill="#ddd" rx="5" ry="5"/><svg width="22.715%" data-testid="lang-progress"><rect height="8" x="0" y="0" fill="#083fa1" class="lang-progress" rx="5" ry="5" style="animation-delay:900ms"/></svg></svg></g></g><g><g class="stagger" style="animation-delay:750ms" transform="translate(0, 80)"><text x="2" y="15" class="lang-name" data-testid="lang-name">HTML</text><text x="215" y="34" class="lang-name">16.83%</text><svg width="205" x="0" y="25"><rect width="205" height="8" x="0" y="0" fill="#ddd" rx="5" ry="5"/><svg width="16.832%" data-testid="lang-progress"><rect height="8" x="0" y="0" fill="#e34c26" class="lang-progress" rx="5" ry="5" style="animation-delay:1050ms"/></svg></svg></g></g><g><g class="stagger" style="animation-delay:900ms" transform="translate(0, 120)"><text x="2" y="15" class="lang-name" data-testid="lang-name">Vue</text><text x="215" y="34" class="lang-name">12.45%</text><svg width="205" x="0" y="25"><rect width="205" height="8" x="0" y="0" fill="#ddd" rx="5" ry="5"/><svg width="12.446%" data-testid="lang-progress"><rect height="8" x="0" y="0" fill="#41b883" class="lang-progress" rx="5" ry="5" style="animation-delay:1200ms"/></svg></svg></g></g><g><g class="stagger" style="animation-delay:1050ms" transform="translate(0, 160)"><text x="2" y="15" class="lang-name" data-testid="lang-name">JSON</text><text x="215" y="34" class="lang-name">10.60%</text><svg width="205" x="0" y="25"><rect width="205" height="8" x="0" y="0" fill="#ddd" rx="5" ry="5"/><svg width="10.603%" data-testid="lang-progress"><rect height="8" x="0" y="0" fill="#292929" class="lang-progress" rx="5" ry="5" style="animation-delay:1350ms"/></svg></svg></g></g></svg></g></svg>